<svg width="18" height="18" fill="none" xmlns="http://www.w3.org/2000/svg"><g clip-path="url(#clip0)"><path d="M8.298 4l-8.01 8.01a.978.978 0 00-.288.696c0 .264.102.51.288.696l.59.59a.986.986 0 001.392 0l6.726-6.726L15.73 14a.978.978 0 00.696.287.979.979 0 00.697-.288l.59-.59a.978.978 0 00.287-.696.977.977 0 00-.288-.696L9.695 4a.979.979 0 00-.698-.287.979.979 0 00-.7.287z" fill="#fff"/></g><defs><clipPath id="clip0"><path fill="#fff" transform="rotate(-90 9 9)" d="M0 0h18v18H0z"/></clipPath></defs></svg>