<svg width="70" height="39" fill="none" xmlns="http://www.w3.org/2000/svg"><path d="M24.68 6.463a20.033 20.033 0 00-2.142 4.617H5.37C1.318 10.692 0 6.463 0 6.463h24.68zm-2.743 17.544H11.81c-4.083-.388-5.412-4.617-5.412-4.617h14.61c.1 1.621.431 3.172.93 4.617zm3.657 4.616h-8.138c-4.205-.31-5.573-3.693-5.573-3.693H22.79c.718 1.325 1.641 2.594 2.804 3.693zm-4.16-11.326v.246H8.212c-4.127-.387-5.47-4.616-5.47-4.616h19.195a18.513 18.513 0 00-.503 4.37z" fill="#48494D"/><path d="M47.678 8.585c-1.536-2.578-3.55-3.968-5.668-3.968-1.263 0-2.493.508-3.62 1.492.752.644 1.435 1.458 2.05 2.476 1.672 2.747 2.595 6.41 2.595 10.343 0 3.934-.922 7.597-2.596 10.344-.614 1.018-1.297 1.865-2.048 2.476 1.126.983 2.356 1.492 3.62 1.492 2.082 0 4.097-1.424 5.667-3.968 1.673-2.747 2.595-6.41 2.595-10.344 0-3.934-.922-7.596-2.595-10.343z" fill="#FF7931"/><path d="M42.047 0c-6.572 0-11.883 8.48-11.883 18.928s5.344 18.929 11.883 18.929c6.572 0 11.882-8.48 11.882-18.929C53.963 8.48 48.62 0 42.047 0zm5.642 29.139c-1.493 2.578-3.452 3.969-5.51 3.969-2.024 0-3.983-1.425-5.51-3.97-1.626-2.747-2.522-6.41-2.522-10.345 0-3.935.896-7.599 2.523-10.346 1.493-2.579 3.452-3.97 5.51-3.97 2.024 0 3.983 1.425 5.51 3.97 1.626 2.747 2.522 6.41 2.522 10.346 0 3.9-.896 7.598-2.523 10.346z" fill="#48494D"/><path d="M30.825 18.928C30.825 8.65 36.215.271 42.96 0h-.348c-6.885 0-12.449 8.48-12.449 18.928s5.599 18.929 12.45 18.929h.347c-6.746-.272-12.136-8.65-12.136-18.929z" fill="#FF7931"/><path d="M41.898 34.026h-.431l-.132-.034-.132-.034h-.133l-.298-.069c-.033 0-.099-.034-.132-.034l-.133-.034-.132-.035a.247.247 0 01-.132-.068l-.265-.103-.265-.137c-.033-.034-.1-.034-.133-.069l-.132-.068c-.066-.035-.165-.103-.232-.137l-.231-.172-.133-.068-.1-.103-.23-.171-.2-.206-.397-.412a10.435 10.435 0 01-1.39-1.816 16.492 16.492 0 01-1.026-2.023c-.298-.72-.53-1.44-.762-2.159-.1-.377-.198-.72-.298-1.097l-.132-.548c-.033-.172-.066-.377-.1-.549a26.416 26.416 0 01-.397-4.558 26.42 26.42 0 01.397-4.559c.034-.172.067-.377.1-.549l.132-.548c.1-.377.166-.754.298-1.097.199-.72.464-1.44.762-2.16.298-.685.629-1.37 1.026-2.022a10.44 10.44 0 011.39-1.817l.398-.41.198-.207.232-.17.1-.104.132-.068.231-.172c.067-.034.166-.102.232-.137l.133-.068c.033-.035.099-.035.132-.069l.265-.137.265-.103c.033-.034.099-.034.132-.068l.133-.035.132-.034c.033 0 .1-.034.132-.034l.298-.069h.133l.132-.034.133-.034h.86l.133.034.132.034h.132l.298.069c.033 0 .1.034.133.034l.132.034.133.035c.033 0 .099.034.132.034l.265.103.265.137c.033.034.1.034.132.068l.133.069c.099.034.165.103.264.137l.232.171.133.069.099.103.232.171c.066.069.132.137.231.206.166.137.298.274.43.411a9.199 9.199 0 011.424 1.817c.43.651.795 1.337 1.093 2.022.298.72.563 1.44.794 2.16.232.754.398 1.474.563 2.262.132.754.265 1.508.331 2.296a26.644 26.644 0 010 4.594 18.278 18.278 0 01-.331 2.296c-.298 1.508-.728 3.017-1.357 4.422-.298.72-.695 1.37-1.093 2.022-.43.651-.894 1.268-1.423 1.817-.133.137-.265.274-.43.411a1.452 1.452 0 01-.232.206l-.232.171-.1.103-.132.069-.232.171c-.099.034-.165.103-.264.137l-.133.069c-.033.034-.1.034-.132.068l-.265.137-.265.103c-.033 0-.1.034-.132.034l-.133.035-.132.034c-.033 0-.1.034-.133.034l-.298.069h-.132l-.132.034-.133.034h-.132l-.298-.137zm0-.582h.397l.133-.035.132-.034h.132l.265-.069c.033 0 .066-.034.133-.034l.132-.034.133-.034c.033 0 .066-.035.132-.035l.232-.102.231-.103c.033-.035.067-.035.133-.069l.1-.068c.065-.035.165-.103.23-.137l.233-.138.099-.068.1-.069.198-.171c.066-.069.132-.103.198-.172.133-.102.265-.24.398-.377a9.189 9.189 0 001.29-1.713c.365-.617.696-1.269.994-1.954.298-.686.53-1.371.728-2.091.1-.343.199-.72.265-1.063l.133-.548c.033-.172.066-.377.099-.549.132-.72.231-1.473.298-2.193a25.082 25.082 0 000-4.456 23.286 23.286 0 00-.298-2.194c-.033-.171-.066-.377-.1-.548l-.132-.549c-.1-.377-.165-.72-.265-1.062-.198-.72-.43-1.406-.728-2.091a17.791 17.791 0 00-.993-1.954 9.187 9.187 0 00-1.291-1.714c-.133-.137-.232-.274-.398-.377a.885.885 0 00-.198-.171l-.199-.172-.1-.068-.098-.069-.232-.137c-.066-.034-.166-.103-.232-.137l-.1-.069c-.032-.034-.065-.034-.132-.068l-.231-.103-.232-.103c-.033 0-.066-.034-.133-.034l-.132-.034-.132-.035c-.034 0-.067-.034-.133-.034l-.265-.068h-.132l-.133-.035-.132-.034h-1.192l-.264.069c-.034 0-.1.034-.133.034l-.132.034-.133.034c-.033 0-.066.035-.132.035l-.232.102-.232.103c-.033.035-.066.035-.132.069l-.1.068c-.066.035-.165.103-.231.138l-.232.137-.1.068-.098.069-.2.171c-.065.069-.132.103-.198.171-.132.103-.265.24-.397.378-.53.514-.96 1.096-1.357 1.713a13.744 13.744 0 00-1.06 1.954 15.717 15.717 0 00-.761 2.091c-.232.72-.397 1.44-.53 2.194a25.68 25.68 0 00-.298 2.228 25.857 25.857 0 000 4.524c.067.754.166 1.508.298 2.228a17.79 17.79 0 001.325 4.285c.297.686.662 1.337 1.059 1.954.397.617.86 1.2 1.357 1.714.133.137.265.24.397.377.067.068.133.102.199.171l.199.171.099.069.1.069.231.137c.066.034.166.102.232.137l.1.068c.032.035.065.035.132.069l.231.103.232.102c.033 0 .066.035.132.035l.133.034.132.034c.033 0 .066.035.133.035l.264.068h.53l.232-.068z" fill="#fff"/><path d="M41.133 37.857H29.07c-6.472 0-11.703-8.48-11.703-18.929C17.367 8.48 22.63 0 29.07 0h12.063C34.66 0 29.43 8.48 29.43 18.928s5.23 18.929 11.703 18.929z" fill="#FF7931"/><path d="M30.784 27.807c-.326-.985-.587-2.037-.816-3.09-.163-.916-.326-1.833-.424-2.784a26.045 26.045 0 01-.13-2.784v-.204c0-.916.032-1.833.13-2.75.098-1.188.294-2.309.522-3.429.914-4.346 2.808-7.979 5.223-10.254a10.05 10.05 0 011.992-1.46c.555-.305 1.142-.577 1.73-.746A7.407 7.407 0 0140.74 0h.392-12.437a7.718 7.718 0 00-1.73.306c-.588.17-1.175.44-1.73.747a11.61 11.61 0 00-1.992 1.46c-2.415 2.274-4.309 5.907-5.223 10.253a35.752 35.752 0 00-.522 3.43c-.066.882-.13 1.799-.13 2.75v.203c0 .95.065 1.867.13 2.784.098.95.228 1.901.424 2.784.229 1.087.49 2.105.816 3.09 1.959 5.975 5.844 10.05 10.316 10.05H41.1c-4.472 0-8.357-4.075-10.316-10.05z" fill="#FF7931"/><path d="M41.956 38.145c-.236 0-.507 0-.743-.035-1.792-.102-3.583-.034-5.374-.068a3.402 3.402 0 01-.845-.205c1.927.069 3.38.103 5.374.137a5.352 5.352 0 01-.71-.171c-.135-.034-.372 0-.507 0-2.095-.068-4.09-.137-4.833-.171-.27-.102-.54-.24-.81-.376 1.925.103 3.379.17 5.339.24a4.185 4.185 0 01-.676-.343c-.135-.034-.372-.034-.507-.034-2.095-.102-4.157-.239-4.799-.273-.27-.171-.507-.342-.777-.513 1.892.137 3.38.24 5.306.342-.203-.137-.44-.308-.642-.444-.136-.069-.338-.035-.507-.035-2.062-.136-4.123-.307-4.8-.341-.236-.205-.473-.445-.71-.65 1.894.171 3.313.274 5.273.445a9.54 9.54 0 01-.608-.581c-.135-.069-.338-.035-.507-.035-2.062-.17-3.954-.376-4.765-.444a7.19 7.19 0 01-.643-.786c2.13.205 3.65.376 5.239.513a5.292 5.292 0 01-.54-.684 348.82 348.82 0 00-5.205-.547 13.732 13.732 0 01-.575-.923c2.13.24 3.616.41 5.17.616a6.032 6.032 0 01-.472-.787c-2.13-.239-3.448-.41-5.171-.65-.17-.34-.338-.683-.507-1.024 1.791.239 3.312.444 5.137.683-.135-.273-.27-.581-.406-.889-2.095-.273-3.38-.444-5.103-.717-.135-.376-.304-.752-.44-1.128 1.792.273 3.245.478 5.07.752-.135-.308-.236-.65-.338-.957-2.061-.308-3.413-.513-5.035-.752-.136-.41-.237-.787-.338-1.197 1.825.308 3.143.513 5.002.787-.102-.342-.17-.684-.27-1.026-1.758-.273-3.144-.513-5.003-.82a14.66 14.66 0 01-.236-1.3c1.926.343 2.974.514 4.968.855-.068-.376-.135-.717-.17-1.093-2.027-.342-3.21-.547-4.933-.855-.068-.444-.102-.889-.136-1.333 2.096.376 3.008.547 4.867.889l-.101-1.128c-2.028-.376-3.177-.581-4.833-.889v-1.401c4.021.752 4.021.752 4.799.923v-1.197c-.98-.17-3.684-.683-4.765-.888.033-.445.067-.923.101-1.367 1.859.341 3.244.615 4.731.888l.102-1.128c-2.028-.376-2.94-.547-4.698-.854.068-.445.135-.889.203-1.3.034-.17.067-.375.101-.546-.034.171-.067.342-.101.547 2.028.376 2.67.478 4.664.854.067-.376.135-.717.202-1.093a218.857 218.857 0 00-4.63-.82l.305-1.231c1.892.342 2.805.478 4.596.786.101-.342.169-.684.27-1.025-1.52-.274-3.041-.513-4.562-.787.135-.376.27-.786.405-1.162 1.86.308 3.008.479 4.529.752.101-.307.237-.65.338-.957-1.96-.307-3.38-.547-4.529-.717.17-.376.304-.718.507-1.06 1.86.273 2.84.444 4.495.684.135-.308.27-.582.44-.89-1.86-.273-3.008-.443-4.462-.649.17-.341.372-.649.575-.957.067-.136.169-.239.236-.376-.1.137-.169.24-.236.376 1.825.24 2.906.41 4.427.616.17-.274.338-.513.473-.787-1.825-.239-3.041-.41-4.427-.58.203-.274.406-.547.642-.82 1.791.204 2.907.34 4.394.512.169-.24.371-.479.54-.684a390.163 390.163 0 00-4.36-.478c.237-.24.474-.479.71-.684 1.792.171 2.907.308 4.36.444.203-.205.406-.376.608-.58-1.79-.172-2.974-.274-4.325-.41.236-.206.507-.377.743-.548 1.758.137 2.839.24 4.326.342.203-.17.44-.307.642-.444-1.757-.137-2.906-.205-4.292-.308l.811-.41c1.758.103 2.839.17 4.292.24.237-.103.44-.24.676-.308C37.225.615 36.076.58 34.724.513c.27-.103.574-.171.845-.24 1.757.034 2.839.103 4.258.137.237-.068.473-.137.71-.17-1.758-.035-2.873-.07-4.259-.103a8.81 8.81 0 01.947-.069h-1.048c-6.692 0-12.099 8.545-12.099 19.073 0 10.527 5.441 19.072 12.099 19.072h1.048l-.575-.034c2.13-.034 3.616-.034 5.306-.034z" fill="#48494D"/><path d="M22.963 19.072C22.963 8.545 28.404 0 35.062 0h-1.048a8.83 8.83 0 00-.98.068c-2.197.035-3.684.069-5.07.103-.236.034-.472.102-.709.17 2.4-.068 4.123-.102 5.036-.136-.27.068-.575.137-.845.24-2.197.068-3.752.136-5.036.204a13.12 13.12 0 00-.676.308c2.095-.102 3.65-.17 5.002-.24-.27.137-.54.24-.811.41-2.163.103-3.718.206-5.002.274-.203.137-.44.274-.642.445 2.197-.137 3.616-.24 5.002-.342a5.98 5.98 0 00-.744.547c-2.163.17-3.65.273-4.968.376-.203.17-.405.376-.608.58 2.163-.204 3.65-.307 4.968-.41-.237.206-.473.445-.71.684-2.129.205-3.683.342-4.934.479a5.215 5.215 0 00-.54.683c2.162-.239 3.615-.376 4.9-.512-.203.273-.44.547-.642.82-2.13.24-3.515.376-4.9.547-.17.24-.339.513-.474.786 2.028-.24 3.549-.41 4.867-.581-.203.308-.372.615-.575.957-2.13.273-3.346.41-4.833.615-.135.274-.304.581-.44.889 2.13-.274 3.482-.479 4.834-.65a9.81 9.81 0 00-.473 1.06c-2.096.274-3.515.479-4.8.684a7.947 7.947 0 00-.337.957c1.994-.308 3.548-.513 4.765-.684-.135.376-.27.752-.406 1.162-2.23.342-3.92.615-4.731.718-.101.342-.203.684-.27 1.025a487.51 487.51 0 004.73-.752l-.303 1.231c-2.028.342-3.414.547-4.698.786a67.22 67.22 0 00-.203 1.094l4.664-.786c-.067.444-.135.854-.203 1.299-1.994.341-3.278.58-4.63.82l-.101 1.128a284.25 284.25 0 014.596-.82c-.034.444-.067.888-.101 1.367-2.13.41-3.82.717-4.563.854v1.197c1.521-.274 3.008-.582 4.53-.855v.342c0 .342 0 .718.033 1.06-2.197.41-3.92.751-4.495.854l.101 1.128a374.53 374.53 0 004.461-.82c.034.444.068.888.136 1.332-.811.137-2.434.445-4.428.82.068.377.102.719.17 1.095 2.027-.376 3.447-.616 4.393-.787.067.445.135.855.236 1.3-2.095.375-3.785.683-4.36.751.068.342.17.684.271 1.026 1.994-.342 3.447-.581 4.326-.752.101.41.203.82.338 1.196-1.927.308-2.94.479-4.292.718.101.342.236.65.338.957 1.994-.308 3.346-.547 4.258-.684.135.376.27.752.44 1.128-1.86.308-3.11.479-4.225.65.135.307.27.58.405.888 1.96-.307 3.38-.513 4.225-.65l.507 1.026c.067.137.135.274.236.41-.067-.136-.169-.273-.236-.41-1.859.274-3.143.445-4.19.616.168.273.303.546.472.786 1.96-.274 3.38-.445 4.157-.582.203.308.372.616.575.923-1.724.24-3.008.376-4.157.513.169.24.372.479.54.684 1.792-.205 3.009-.342 4.124-.479.203.274.44.547.642.786-1.791.205-2.974.342-4.09.445.203.205.406.41.609.58 1.757-.17 3.042-.307 4.09-.41.236.24.472.445.709.65.068.034.101.102.169.137-.068-.035-.101-.103-.17-.137-1.79.17-2.973.273-4.055.376.203.17.44.308.642.444a202.76 202.76 0 004.056-.342c.237.171.507.342.777.513-1.926.137-3.312.24-4.021.274.236.102.439.239.675.341 1.758-.102 3.008-.17 4.022-.239.27.137.541.24.811.376-1.892.103-3.312.137-4.021.171.236.068.473.137.71.171 1.723-.034 2.94-.103 3.987-.137.27.069.575.137.845.205-1.892.035-3.244.069-3.988.069.237.034.507.034.744.034h.033c1.86 0 3.177 0 3.955-.034.169 0 .371.034.54.034h1.048c-6.658 0-12.065-8.545-12.065-19.073z" fill="#48494D"/><path d="M60.26 12.14c2.81-1.36 3.825-4.283 3.86-4.453l.405-1.224H45.703l1.015 1.462a16.246 16.246 0 012.065 4.216l.17.544.135.612c.305 1.291.474 2.651.474 3.977v.782l-.034.578c-.101 1.428-.44 2.856-.914 4.215l-.17.476-.202.442c-.643 1.53.474 2.958-.61 4.216l-1.252 1.564h3.622c4.706-.408 6.263-4.896 6.33-5.1l.102-.34h.034c4.706-.408 6.263-4.895 6.33-5.1l.272-.781c3.758-.986 5.01-4.725 5.078-4.895l.406-1.224H60.26v.034z" fill="#fff"/><path d="M44.79 6.463a20.005 20.005 0 012.14 4.617h17.168c4.053-.388 5.37-4.617 5.37-4.617H44.79zm2.74 17.544h10.128c4.084-.388 5.412-4.617 5.412-4.617H48.46c-.132 1.621-.431 3.172-.93 4.617zm-2.74 4.616h8.137c4.205-.31 5.573-3.693 5.573-3.693H47.593a15.56 15.56 0 01-2.804 3.693zM48 17.297v.246h13.256c4.128-.387 5.47-4.616 5.47-4.616H47.531c.302 1.374.47 2.854.47 4.37z" fill="#FF7931"/></svg>