<svg width="12" height="15" fill="none" xmlns="http://www.w3.org/2000/svg"><mask id="a" fill="#fff"><path fill-rule="evenodd" clip-rule="evenodd" d="M4.727 9.569h1.424c.576 0 1.152 0 1.758-.059a4.333 4.333 0 004.09-4.205C12.03 2.998 10.274.983 8.03.867a70.132 70.132 0 00-4.303-.03c-.666.03-1.333.03-2.03.03h-.303v6.716H0v1.956h1.394v.789H.03v1.956h1.364V15h2.182v-2.716h3.363v-1.956H3.576v-.76h1.151zM3.576 7.583h.515v.03h1.06c1.273.028 2.152 0 2.667-.03C9.03 7.466 10 6.415 9.969 5.188c0-1.284-1.03-2.336-2.333-2.394a32.59 32.59 0 00-2.199-.033c-.253.002-.51.004-.77.004H3.576v4.818z"/></mask><path fill-rule="evenodd" clip-rule="evenodd" d="M4.727 9.569h1.424c.576 0 1.152 0 1.758-.059a4.333 4.333 0 004.09-4.205C12.03 2.998 10.274.983 8.03.867a70.132 70.132 0 00-4.303-.03c-.666.03-1.333.03-2.03.03h-.303v6.716H0v1.956h1.394v.789H.03v1.956h1.364V15h2.182v-2.716h3.363v-1.956H3.576v-.76h1.151zM3.576 7.583h.515v.03h1.06c1.273.028 2.152 0 2.667-.03C9.03 7.466 10 6.415 9.969 5.188c0-1.284-1.03-2.336-2.333-2.394a32.59 32.59 0 00-2.199-.033c-.253.002-.51.004-.77.004H3.576v4.818z" fill="#A8A8A8"/><path d="M7.909 9.51l-.013-.25-.011.001.024.25zm4.09-4.205l.25.007v-.004L12 5.305zM8.03.867l.013-.25H8.04l-.01.25zM3.727.837l-.005-.25h-.006l.011.25zm-2.333.03v-.25h-.25v.25h.25zm0 6.716v.25h.25v-.25h-.25zM0 7.583v-.25h-.25v.25H0zm0 1.956h-.25v.25H0v-.25zm1.394 0h.25v-.25h-.25v.25zm0 .789v.25h.25v-.25h-.25zm-1.364 0v-.25h-.25v.25h.25zm0 1.956h-.25v.25h.25v-.25zm1.364 0h.25v-.25h-.25v.25zm0 2.716h-.25v.25h.25V15zm2.182 0v.25h.25V15h-.25zm0-2.716v-.25h-.25v.25h.25zm3.363 0v.25h.25v-.25h-.25zm0-1.956h.25v-.25h-.25v.25zm-3.363 0h-.25v.25h.25v-.25zm0-.76v-.25h-.25v.25h.25zm.515-1.985h.25v-.25h-.25v.25zm-.515 0h-.25v.25h.25v-.25zm.515.03h-.25v.25h.25v-.25zm1.06 0l.006-.25h-.006v.25zm2.667-.03l.014.25.01-.001-.024-.25zm2.151-2.395h-.25v.007l.25-.007zM7.636 2.794l-.015.25h.004l.011-.25zM5.437 2.76l-.001-.25.001.25zm-1.861.004v-.25h-.25v.25h.25zM6.15 9.319H4.727v.5h1.424v-.5zm0 0v.5-.5zm1.734-.058c-.592.057-1.156.058-1.733.058v.5c.574 0 1.161 0 1.78-.06l-.047-.498zm3.865-3.963a4.083 4.083 0 01-3.854 3.963l.026.499a4.583 4.583 0 004.328-4.448l-.5-.014zM8.017 1.116c2.096.11 3.761 2 3.733 4.186l.5.006C12.282 2.88 10.432.741 8.043.617l-.026.5zm-4.285-.029a69.308 69.308 0 014.288.03l.02-.5a70.38 70.38 0 00-4.318-.03l.01.5zm-2.035.03c.696 0 1.368 0 2.041-.03l-.022-.5c-.66.03-1.321.03-2.019.03v.5zm-.303 0h.303v-.5h-.303v.5zm.25 5.648V.867h-.5v5.898h.5zm0 .818v-.818h-.5v.818h.5zM0 7.833h1.394v-.5H0v.5zm.25 1.706V7.583h-.5v1.956h.5zm1.144-.25H0v.5h1.394v-.5zm.25 1.039v-.789h-.5v.789h.5zm-1.614.25h1.364v-.5H.03v.5zm.25 1.706v-1.956h-.5v1.956h.5zm1.114-.25H.03v.5h1.364v-.5zM1.644 15v-2.716h-.5V15h.5zm1.932-.25H1.394v.5h2.182v-.5zm-.25-2.466V15h.5v-2.716h-.5zm3.613-.25H3.576v.5h3.363v-.5zm-.25-1.706v1.956h.5v-1.956h-.5zm-3.113.25h3.363v-.5H3.576v.5zm-.25-1.01v.76h.5v-.76h-.5zm1.401-.25H3.576v.5h1.151v-.5zm-.636-1.985h-.515v.5h.515v-.5zm.25.28v-.03h-.5v.03h.5zm.174-.25h-.424v.5h.424v-.5zm.515 0h-.515v.5h.515v-.5zm.121 0h-.12v.5h.12v-.5zm2.653-.03a33.7 33.7 0 01-2.647.03l-.011.499c1.279.03 2.164 0 2.686-.03l-.028-.499zM9.72 5.195c.026 1.09-.84 2.034-1.926 2.139l.048.498c1.338-.13 2.411-1.287 2.377-2.65l-.5.013zM7.625 3.044c1.174.052 2.094.998 2.094 2.144h.5c0-1.423-1.14-2.58-2.572-2.644l-.022.5zM5.439 3.01c.751-.005 1.468-.01 2.182.032l.03-.499c-.734-.044-1.467-.038-2.215-.033l.003.5zm-.772.004c.261 0 .519-.002.772-.004l-.003-.5c-.254.002-.51.004-.77.004v.5zm-1.091 0h1.09v-.5h-1.09v.5zm.25 3.75v-4h-.5v4h.5zm-.5 0v.818h.5v-.818h-.5z" fill="#fff" mask="url(#a)"/></svg>