<svg width="16" height="20" fill="none" xmlns="http://www.w3.org/2000/svg"><path d="M2.262 10.199V.998c2.99 0 5.697-.12 8.404.04 2.828.16 4.97 2.8 4.889 5.68-.081 2.8-2.263 5.241-5.091 5.361-2.02.12-4 .04-6.1.04l-2.102-1.92zm2.101-7.361v7.44c.525.04 2.101 0 2.505 0 1.131 0 2.707.04 3.596-.08 1.899-.2 3.273-1.84 3.232-3.68-.04-1.92-1.495-3.56-3.474-3.68-1.9-.08-3.839 0-5.859 0z" fill="#FF7931"/><path d="M8.202 12.56H4.363v-.801h1.94c1.414 0 2.788.04 4.161-.04 2.586-.16 4.646-2.32 4.687-5 .08-2.76-1.98-5.121-4.525-5.281-1.859-.12-3.717-.08-5.657-.04-.767 0-1.535.04-2.303.04v8.8h-.808v-9.6h.404c.93 0 1.819 0 2.707-.04 1.98-.04 3.839-.04 5.738.04 2.99.16 5.333 2.92 5.292 6.08-.08 3.08-2.464 5.601-5.454 5.761-.808.08-1.576.08-2.343.08zm0-1.881H4.323l-.364-.04V2.398h2.263c1.374 0 2.707-.04 4.04.04 2.141.12 3.838 1.92 3.879 4.08.04 2.08-1.576 3.88-3.596 4.08-.525.08-1.333.08-2.343.08zm-1.495-.8h.161c1.697.04 2.869 0 3.556-.04 1.616-.16 2.909-1.6 2.868-3.28a3.272 3.272 0 00-3.11-3.281c-1.294-.08-2.586-.04-3.96-.04H4.767v6.64h1.94z" fill="#FF7931"/><path d="M5.09 10.279H.445v1.88h4.647v-1.88z" fill="#FF7931"/><path d="M5.454 12.52H0V9.838h5.454v2.68zm-4.606-.801h3.839v-1.08H.848v1.08zm8 2.281H.444v1.88h8.404V14z" fill="#FF7931"/><path d="M9.252 16.28H.04V13.6h9.212v2.68zm-8.404-.8h7.596V14.4H.848v1.08z" fill="#FF7931"/><path d="M4.363 9.119h-2.1V19.6h2.1V9.119z" fill="#FF7931"/><path d="M4.767 20H1.858V8.72h2.91V20zm-2.1-.8h1.292V9.519H2.666V19.2z" fill="#FF7931"/></svg>